<svg width="80" height="64" viewBox="0 0 80 64" fill="none" xmlns="http://www.w3.org/2000/svg">
<path d="M4.928 53V7.88H24.64C29.376 7.88 33.0453 8.92533 35.648 11.016C38.2507 13.064 39.552 15.9227 39.552 19.592C39.552 22.024 38.9333 24.1147 37.696 25.864C36.4587 27.6133 34.752 28.8933 32.576 29.704C35.136 30.4293 37.12 31.7093 38.528 33.544C39.9787 35.336 40.704 37.6187 40.704 40.392C40.704 44.4027 39.3387 47.5173 36.608 49.736C33.92 51.912 30.1653 53 25.344 53H4.928ZM12.8 27.016H23.232C28.8213 27.016 31.616 24.8613 31.616 20.552C31.616 16.2427 28.8213 14.088 23.232 14.088H12.8V27.016ZM12.8 46.792H24.32C29.952 46.792 32.768 44.5307 32.768 40.008C32.768 35.4853 29.952 33.224 24.32 33.224H12.8V46.792ZM48.9905 53V7.88H78.4945V14.408H57.1825V27.144H77.1505V33.672H57.1825V53H48.9905Z" fill="#D3CFCF"/>
<rect x="1" y="25" width="76" height="15" fill="#000" />
<path d="M5.066 37V27.835H8.888C9.84133 27.835 10.578 28.0473 11.098 28.472C11.6267 28.888 11.891 29.473 11.891 30.227C11.891 30.721 11.761 31.1457 11.501 31.501C11.241 31.8563 10.8857 32.1163 10.435 32.281C10.9637 32.4197 11.3753 32.6753 11.67 33.048C11.9647 33.4207 12.112 33.893 12.112 34.465C12.112 35.2797 11.839 35.908 11.293 36.35C10.7557 36.7833 10.006 37 9.044 37H5.066ZM6.366 31.839H8.68C9.94533 31.839 10.578 31.345 10.578 30.357C10.578 29.369 9.94533 28.875 8.68 28.875H6.366V31.839ZM6.366 35.96H8.888C10.162 35.96 10.799 35.4443 10.799 34.413C10.799 33.3903 10.162 32.879 8.888 32.879H6.366V35.96ZM16.6703 37.117C16.029 37.117 15.4743 36.9827 15.0063 36.714C14.5383 36.4453 14.1743 36.0683 13.9143 35.583C13.663 35.089 13.5373 34.504 13.5373 33.828C13.5373 33.152 13.663 32.5713 13.9143 32.086C14.1743 31.592 14.5383 31.2107 15.0063 30.942C15.4743 30.6733 16.029 30.539 16.6703 30.539C17.2943 30.539 17.8403 30.6733 18.3083 30.942C18.7763 31.2107 19.1403 31.592 19.4003 32.086C19.6603 32.5713 19.7903 33.152 19.7903 33.828C19.7903 34.504 19.6603 35.089 19.4003 35.583C19.1403 36.0683 18.7763 36.4453 18.3083 36.714C17.8403 36.9827 17.2943 37.117 16.6703 37.117ZM16.6703 36.103C17.2077 36.103 17.641 35.908 17.9703 35.518C18.2997 35.128 18.4643 34.5647 18.4643 33.828C18.4643 33.0913 18.2997 32.5323 17.9703 32.151C17.641 31.761 17.2077 31.566 16.6703 31.566C16.1243 31.566 15.6867 31.761 15.3573 32.151C15.028 32.5323 14.8633 33.0913 14.8633 33.828C14.8633 34.5647 15.028 35.128 15.3573 35.518C15.6867 35.908 16.1243 36.103 16.6703 36.103ZM24.1509 37.117C23.5096 37.117 22.9549 36.9827 22.4869 36.714C22.0189 36.4453 21.6549 36.0683 21.3949 35.583C21.1436 35.089 21.0179 34.504 21.0179 33.828C21.0179 33.152 21.1436 32.5713 21.3949 32.086C21.6549 31.592 22.0189 31.2107 22.4869 30.942C22.9549 30.6733 23.5096 30.539 24.1509 30.539C24.7749 30.539 25.3209 30.6733 25.7889 30.942C26.2569 31.2107 26.6209 31.592 26.8809 32.086C27.1409 32.5713 27.2709 33.152 27.2709 33.828C27.2709 34.504 27.1409 35.089 26.8809 35.583C26.6209 36.0683 26.2569 36.4453 25.7889 36.714C25.3209 36.9827 24.7749 37.117 24.1509 37.117ZM24.1509 36.103C24.6882 36.103 25.1216 35.908 25.4509 35.518C25.7802 35.128 25.9449 34.5647 25.9449 33.828C25.9449 33.0913 25.7802 32.5323 25.4509 32.151C25.1216 31.761 24.6882 31.566 24.1509 31.566C23.6049 31.566 23.1672 31.761 22.8379 32.151C22.5086 32.5323 22.3439 33.0913 22.3439 33.828C22.3439 34.5647 22.5086 35.128 22.8379 35.518C23.1672 35.908 23.6049 36.103 24.1509 36.103ZM28.8755 37V27.835H30.1885V33.425H30.2145L32.9705 30.656H34.5955L31.5535 33.711L34.8295 37H33.1915L30.2145 34.101H30.1885V37H28.8755ZM39.3967 37V27.835H45.2207V28.927H40.7487V31.852H44.9477V32.944H40.7487V37H39.3967ZM46.4649 29.187V27.822H47.9989V29.187H46.4649ZM46.5819 37V30.656H47.8949V37H46.5819ZM49.873 37V30.656H51.147V31.709C51.3637 31.3277 51.6584 31.0373 52.031 30.838C52.4124 30.6387 52.837 30.539 53.305 30.539C54.8044 30.539 55.554 31.3883 55.554 33.087V37H54.241V33.165C54.241 32.619 54.1327 32.2203 53.916 31.969C53.708 31.7177 53.3787 31.592 52.928 31.592C52.3994 31.592 51.9747 31.761 51.654 32.099C51.342 32.4283 51.186 32.866 51.186 33.412V37H49.873ZM59.9113 37.117C59.3566 37.117 58.8669 36.987 58.4423 36.727C58.0263 36.4583 57.7013 36.077 57.4673 35.583C57.2333 35.089 57.1163 34.504 57.1163 33.828C57.1163 33.152 57.2333 32.5713 57.4673 32.086C57.7013 31.592 58.0263 31.2107 58.4423 30.942C58.8583 30.6733 59.3479 30.539 59.9113 30.539C60.3879 30.539 60.8126 30.643 61.1853 30.851C61.5579 31.059 61.8353 31.3407 62.0173 31.696V27.835H63.3303V37H62.0433V35.895C61.8613 36.2763 61.5796 36.5753 61.1983 36.792C60.8256 37.0087 60.3966 37.117 59.9113 37.117ZM60.2493 36.103C60.7866 36.103 61.2199 35.908 61.5493 35.518C61.8786 35.128 62.0433 34.5647 62.0433 33.828C62.0433 33.0913 61.8786 32.5323 61.5493 32.151C61.2199 31.761 60.7866 31.566 60.2493 31.566C59.7033 31.566 59.2656 31.761 58.9363 32.151C58.6069 32.5323 58.4423 33.0913 58.4423 33.828C58.4423 34.5647 58.6069 35.128 58.9363 35.518C59.2656 35.908 59.7033 36.103 60.2493 36.103ZM68.2809 37.117C67.2409 37.117 66.4219 36.8267 65.8239 36.246C65.2259 35.6567 64.9269 34.855 64.9269 33.841C64.9269 33.191 65.0569 32.619 65.3169 32.125C65.5856 31.6223 65.9539 31.2323 66.4219 30.955C66.8899 30.6777 67.4273 30.539 68.0339 30.539C68.9093 30.539 69.5983 30.8207 70.1009 31.384C70.6036 31.9387 70.8549 32.7057 70.8549 33.685V34.127H66.2009C66.2963 35.4443 66.9939 36.103 68.2939 36.103C68.6579 36.103 69.0133 36.0467 69.3599 35.934C69.7153 35.8213 70.0489 35.635 70.3609 35.375L70.7509 36.285C70.4649 36.545 70.0966 36.7487 69.6459 36.896C69.1953 37.0433 68.7403 37.117 68.2809 37.117ZM68.0859 31.462C67.5399 31.462 67.1066 31.631 66.7859 31.969C66.4653 32.307 66.2703 32.7577 66.2009 33.321H69.7499C69.7239 32.7317 69.5679 32.2767 69.2819 31.956C68.9959 31.6267 68.5973 31.462 68.0859 31.462ZM72.4164 37V30.656H73.6904V31.787C74.0197 31.033 74.7044 30.6127 75.7444 30.526L76.1734 30.5L76.2644 31.618L75.4714 31.696C74.3187 31.8087 73.7424 32.4023 73.7424 33.477V37H72.4164Z" fill="#D3CFCF"/>
</svg>
